<?xml version="1.0" encoding="UTF-8"?>
<svg id="Layer_1" xmlns="http://www.w3.org/2000/svg" version="1.1" viewBox="0 0 1000 1000">
  <!-- Generator: Adobe Illustrator 30.2.1, SVG Export Plug-In . SVG Version: 2.1.1 Build 1)  -->
  <defs>
    <style>
      .st0 {
        fill: #fff;
      }
    </style>
  </defs>
  <circle cx="500" cy="500" r="475.5"/>
  <g>
    <path class="st0" d="M229.1,217.7c.5,48.3,8.4,101.3,22.1,147.7,3.6,12.3,7.2,24.2,11.9,36.1l9.7,24.7c6.1,15.6,13.8,30.2,21.5,45.1l4.3,8.3,16.7,28.4c7.2,12.2,15.2,23.4,23.5,34.9,15.6,21.6,32.6,41.7,51.1,60.8,18.7,19.3,37.8,37,58.9,53.7,28.6,22.8,68.6,49.8,101.4,65.5l25.7,12.3c16,7.7,32.5,13.4,49.3,19.1,25.8,8.6,57.4,16.6,84.3,20.7,20.1,3.1,39.8,5.4,60,6.1l9.6.4c7.8.3,15.3.3,23,.1l13-.3c3.4,0,6.7-.4,10.2-.7.9,0,.8.2,0,.7l-29.1,14.6c-26.1,13.1-54.3,21.7-82.8,28.7-39.6,9.8-80.3,13.7-121.1,12.1-13.1-.5-25.4-1.5-38.2-3.3-18-2.5-35.7-5.7-53.3-10.4-42.8-11.3-83.7-28.2-121.6-50.9s-17.8-10.8-26.5-16.8c-18.9-13.1-36.7-27-53.5-42.7-9.3-8.7-18.1-17.5-26.7-26.9-19.9-21.8-37.3-45.5-52.7-70.7-8.2-13.4-15.1-27.3-21.9-41.3-2.9-5.9-5-11.6-7.6-17.6-10.3-24.6-19.5-53.9-24.6-80.3-9.1-46.3-10.8-87.4-4.5-134.3,2.1-15.1,4.7-29.6,8.4-44.3,7.4-29.4,17.7-57.6,31.5-84.4,7-13.6,14.1-26.7,22.6-39.3l5-7.4.3-.5.9-1.4.3-.5.5-.8c0-.1.5.1.4.2v1.4c-1.4,17.8-2.4,35.2-2.2,53.2Z"/>
    <path class="st0" d="M343.6,324.9c-6.4-24-11.4-54.8-12.7-79.5-.4-7.9,2.7-15.6,7.1-21.9,7.4-10.6,19.9-16.6,32.8-16,20.3.9,36.1,17.4,37.2,37.5s.9,12.1,1.7,18.4c5.2,42.4,18.9,86.5,38.7,124.3,3.2,6.1,6.2,11.9,9.8,17.8,9.1,15.2,18.6,29.8,29.6,43.6l6.7,8.3c19.2,23.9,41.6,44.8,65.7,63.8,11.5,9,23.1,17,35.5,24.8,53.3,33.4,115.8,53.5,178.8,56.3,6.5.3,12.2.5,18.1,3,11.2,4.7,19.8,14.2,22.6,26.1,2.8,11.7.3,23.8-7.4,33.4-6.9,8.6-17.9,14.3-29.8,14.2-20.6,0-40.7-2.4-61.1-5.9s-22.8-4.5-34.3-7.5c-32.8-8.4-76.1-25.1-105.1-42.2l-18.5-10.9c-13.1-7.7-25.2-16.3-37.3-25.4l-4.9-3.7c-14.3-10.9-27.7-22.4-40.6-34.9-12.2-11.7-23.6-23.7-34.5-36.6l-9.4-11.3-11.4-14.6c-5.4-7-10.2-14-15.1-21.4-21-31.8-35.9-61-49.1-96.8-5.2-14.2-9.4-28.3-13.3-42.9Z"/>
    <path class="st0" d="M531.2,209.1c10.5-3.5,21.8-2,31,3.4,11.6,6.9,18.4,18.5,19.3,31.9,1.9,30.6,12.1,61.2,28.1,87.3,10.7,17.3,23.4,33.1,38.7,46.6,29.4,25.8,69,45.7,107.9,49.8l20.1,2.1c8.9.9,17.1,6.4,22.9,13.3,10.6,12.6,11.7,30.9,3,44.6-7.6,12-20.4,18.5-34.3,17.6-14.3-.9-28.1-2.6-42.1-5.9-9.5-2.3-18.5-4.6-27.8-7.8-24.4-8.3-47.3-20.2-68.6-34.6-51.8-34.9-92.4-87.3-111.9-146.7-7-21.5-12.2-44-13.2-66.7,1.2-15.9,11.5-29.7,26.9-34.9Z"/>
    <polygon class="st0" points="766.1 352.3 734.2 292.3 667.4 304.1 714.6 255.2 682.7 195.3 743.7 225.1 790.9 176.2 781.4 243.5 842.4 273.3 775.6 285 766.1 352.3"/>
  </g>
</svg>