<?xml version="1.0" encoding="UTF-8"?>
<svg id="Layer_1" xmlns="http://www.w3.org/2000/svg" version="1.1" viewBox="0 0 1000 1000">
  <!-- Generator: Adobe Illustrator 30.2.1, SVG Export Plug-In . SVG Version: 2.1.1 Build 1)  -->
  <defs>
    <style>
      .st0 {
        fill: #fff;
      }
    </style>
  </defs>
  <path class="st0" d="M128.3,112.7c.7,66.3,11.5,139,30.3,202.6,5,16.9,9.9,33.2,16.3,49.5l13.3,33.9c8.4,21.5,18.9,41.4,29.5,61.9l5.9,11.4,22.9,38.9c9.9,16.7,20.8,32.1,32.2,47.9,21.3,29.6,44.8,57.3,70.2,83.5,25.7,26.5,51.9,50.7,80.8,73.7,39.2,31.2,94.2,68.3,139.2,89.8l35.2,16.8c22,10.5,44.5,18.4,67.7,26.2,35.4,11.9,78.8,22.7,115.7,28.4,27.5,4.2,54.6,7.4,82.4,8.4l13.1.5c10.7.4,21,.4,31.6.2l17.8-.4c4.7-.1,9.2-.5,14.1-.9,1.2,0,1,.3,0,1l-39.9,20c-35.9,18-74.4,29.8-113.6,39.4-54.4,13.4-110.2,18.8-166.1,16.5-17.9-.7-34.8-2-52.5-4.5-24.7-3.4-49-7.9-73.2-14.3-58.7-15.6-114.8-38.7-166.9-69.8-12.5-7.5-24.4-14.8-36.3-23-25.9-17.9-50.3-37-73.3-58.6-12.7-11.9-24.8-24-36.6-37-27.2-29.9-51.2-62.4-72.3-97-11.2-18.4-20.7-37.4-30-56.7s-6.9-15.9-10.4-24.2c-14.2-33.8-26.7-74-33.8-110.1-12.5-63.5-14.9-119.9-6.1-184.2,2.8-20.7,6.4-40.7,11.5-60.8,10.2-40.3,24.3-79,43.2-115.8,9.6-18.6,19.4-36.6,30.9-53.9l6.8-10.2.5-.7,1.2-1.9.4-.6.7-1c.1-.2.6.1.6.3v1.9c-1.9,24.4-3.2,48.3-3,72.9Z"/>
  <path class="st0" d="M285.4,259.7c-8.8-33-15.7-75.2-17.5-109.1-.6-10.8,3.7-21.4,9.7-30.1,10.1-14.5,27.4-22.8,44.9-22,27.8,1.3,49.5,23.9,51,51.4.5,8.7,1.3,16.6,2.4,25.3,7.1,58.1,26,118.6,53.1,170.5,4.4,8.4,8.6,16.3,13.5,24.5,12.5,20.8,25.5,41,40.7,59.9l9.2,11.4c26.4,32.8,57,61.5,90.2,87.5,15.7,12.3,31.7,23.4,48.7,34,73.2,45.9,158.9,73.3,245.3,77.2,8.9.4,16.7.7,24.8,4.1,15.4,6.4,27.1,19.5,31,35.9,3.8,16.1.3,32.7-10.2,45.8-9.5,11.8-24.5,19.6-40.8,19.5-28.3-.1-55.9-3.3-83.8-8.1-16.1-2.8-31.2-6.2-47-10.3-45-11.5-104.4-34.5-144.3-57.8l-25.4-14.9c-18-10.5-34.6-22.3-51.2-34.9l-6.7-5.1c-19.6-14.9-38-30.7-55.7-47.8-16.7-16.1-32.4-32.5-47.3-50.2l-13-15.5-15.6-20c-7.5-9.6-14-19.2-20.7-29.4-28.8-43.7-49.3-83.6-67.4-132.8-7.2-19.5-12.8-38.8-18.2-58.8Z"/>
  <path class="st0" d="M542.9,100.9c14.4-4.8,29.9-2.8,42.5,4.7,16,9.5,25.3,25.4,26.4,43.8,2.6,42,16.6,84,38.6,119.7,14.6,23.8,32.1,45.4,53.1,63.9,40.3,35.3,94.7,62.7,148,68.3l27.6,2.9c12.2,1.3,23.5,8.8,31.4,18.3,14.5,17.2,16,42.4,4.1,61.2s-28,25.3-47.1,24.2c-19.6-1.2-38.6-3.6-57.8-8.1-13.1-3.1-25.3-6.4-38.1-10.7-33.4-11.3-64.9-27.7-94.1-47.4-71.1-47.9-126.8-119.7-153.5-201.3-9.6-29.5-16.7-60.4-18.1-91.5,1.6-21.8,15.8-40.7,36.9-47.8Z"/>
  <polygon class="st0" points="865.1 297.3 821.4 215 729.6 231.2 794.4 164.2 750.7 81.9 834.4 122.8 899.1 55.8 886.1 148.1 969.8 188.9 878.1 205.1 865.1 297.3"/>
</svg>
