<?xml version="1.0" encoding="UTF-8"?>
<svg id="Layer_1" xmlns="http://www.w3.org/2000/svg" version="1.1" viewBox="0 0 1000 1000">
  <!-- Generator: Adobe Illustrator 30.2.1, SVG Export Plug-In . SVG Version: 2.1.1 Build 1)  -->
  <defs>
    <style>
      .st0 {
        fill: #fff;
      }
    </style>
  </defs>
  <circle cx="500" cy="500" r="475.5"/>
  <g>
    <path class="st0" d="M269,259.2c.4,41.2,7.2,86.4,18.8,126,3.1,10.5,6.1,20.6,10.1,30.8l8.3,21.1c5.2,13.3,11.8,25.8,18.3,38.5l3.7,7.1,14.2,24.2c6.1,10.4,13,20,20,29.8,13.3,18.4,27.8,35.6,43.6,51.9,15.9,16.5,32.2,31.6,50.2,45.8,24.4,19.4,58.5,42.5,86.5,55.9l21.9,10.5c13.6,6.6,27.7,11.4,42,16.3,22,7.3,49,14.2,71.9,17.7,17.1,2.6,33.9,4.6,51.2,5.2l8.2.3c6.7.3,13,.3,19.6,0l11.1-.3c2.9,0,5.7-.3,8.7-.6.8,0,.7.2,0,.6l-24.8,12.5c-22.3,11.2-46.3,18.5-70.6,24.5-33.8,8.4-68.5,11.7-103.3,10.3-11.2-.4-21.7-1.3-32.6-2.8-15.4-2.1-30.4-4.9-45.5-8.9-36.5-9.6-71.4-24.1-103.7-43.4-32.3-19.4-15.2-9.2-22.6-14.3-16.1-11.2-31.3-23-45.6-36.4-7.9-7.4-15.4-14.9-22.8-22.9-17-18.6-31.8-38.8-44.9-60.3-7-11.4-12.9-23.3-18.7-35.2-2.5-5-4.3-9.9-6.5-15-8.8-21-16.6-46-21-68.5-7.8-39.5-9.2-74.5-3.8-114.5,1.8-12.9,4-25.2,7.2-37.8,6.3-25.1,15.1-49.1,26.9-72,6-11.6,12-22.8,19.3-33.5l4.3-6.3.3-.4.8-1.2.3-.4.4-.7c0,0,.4,0,.3.2v1.2c-1.2,15.2-2,30-1.9,45.4h.2Z"/>
    <path class="st0" d="M366.6,350.7c-5.5-20.5-9.7-46.7-10.8-67.8-.3-6.7,2.3-13.3,6.1-18.7,6.3-9,17-14.2,28-13.6,17.3.8,30.8,14.8,31.7,32,.9,17.1.8,10.3,1.4,15.7,4.4,36.2,16.1,73.8,33,106,2.7,5.2,5.3,10.1,8.4,15.2,7.8,13,15.9,25.4,25.2,37.2l5.7,7.1c16.4,20.4,35.5,38.2,56,54.4,9.8,7.7,19.7,14.5,30.3,21.2,45.5,28.5,98.8,45.6,152.5,48,5.5.3,10.4.4,15.4,2.6,9.6,4,16.9,12.1,19.3,22.3,2.4,10,.3,20.3-6.3,28.5-5.9,7.3-15.3,12.2-25.4,12.1-17.6,0-34.7-2-52.1-5s-19.4-3.8-29.3-6.4c-28-7.2-64.9-21.4-89.6-36l-15.8-9.3c-11.2-6.6-21.5-13.9-31.8-21.7l-4.2-3.2c-12.2-9.3-23.6-19.1-34.6-29.8-10.4-10-20.1-20.2-29.4-31.2l-8-9.6-9.7-12.5c-4.6-6-8.7-11.9-12.9-18.3-17.9-27.1-30.6-52-41.9-82.6-4.4-12.1-8-24.1-11.3-36.6h.2Z"/>
    <path class="st0" d="M526.6,251.9c9-3,18.6-1.7,26.4,2.9,9.9,5.9,15.7,15.8,16.5,27.2,1.6,26.1,10.3,52.2,24,74.5,9.1,14.8,20,28.2,33,39.7,25.1,22,58.8,39,92,42.5l17.1,1.8c7.6.8,14.6,5.5,19.5,11.3,9,10.7,10,26.4,2.6,38-6.5,10.2-17.4,15.8-29.3,15-12.2-.8-24-2.2-35.9-5-8.1-2-15.8-3.9-23.7-6.7-20.8-7.1-40.3-17.2-58.5-29.5-44.2-29.8-78.8-74.5-95.4-125.1-6-18.3-10.4-37.5-11.3-56.9,1-13.6,9.8-25.3,22.9-29.8h0Z"/>
    <polygon class="st0" points="726.9 374 699.7 322.9 642.8 332.9 683 291.2 655.8 240.1 707.8 265.5 748.1 223.8 740 281.2 792 306.7 735 316.6 726.9 374"/>
  </g>
</svg>